<?xml version="1.0" encoding="UTF-8"?><svg xmlns="http://www.w3.org/2000/svg" width="500" height="280" viewBox="0 0 500 280"><rect width="100%" height="100%" fill="#ffffff"/><text x="25" y="44.2" font-family="Arial" font-size="19.2" fill="#1a1a2e"><tspan>Jane Doe</tspan></text><text x="25" y="71.28" font-family="Arial" font-size="11.4" fill="#16213e"><tspan>Senior Developer</tspan></text><line x1="25" y1="84.34" x2="315" y2="84.34" stroke="#e2e2e2" stroke-width="1" stroke-dasharray="2,2"/><text x="25" y="107.439995" font-family="Arial" font-size="9.6" fill="#0f3460"><tspan>jane@example.com</tspan></text><text x="25" y="125.88" font-family="Arial" font-size="9.6" fill="#0f3460"><tspan>+1 (555) 123-4567</tspan></text><text x="25" y="144.32" font-family="Arial" font-size="9.6" fill="#0f3460"><tspan>example.com</tspan></text><rect x="335" y="25" width="140" height="140" fill="#ffffff"/><svg x="335" y="25" width="140" height="140"><g><rect width="140" height="140" fill="#ffffff"/><path d="M15.135135 15.135135h26.486486v3.7837837h-26.486486zM52.972973 15.135135h3.7837837v3.7837837h-3.7837837zM60.54054 15.135135h7.5675673v3.7837837h-7.5675673zM75.675674 15.135135h3.7837837v3.7837837h-3.7837837zM83.24324 15.135135h7.5675673v3.7837837h-7.5675673zM98.37837 15.135135h26.486486v3.7837837h-26.486486zM15.135135 18.918919h3.7837837v3.7837837h-3.7837837zM37.837837 18.918919h3.7837837v3.7837837h-3.7837837zM45.405403 18.918919h15.135135v3.7837837h-15.135135zM68.10811 18.918919h15.135135v3.7837837h-15.135135zM87.02702 18.918919h7.5675673v3.7837837h-7.5675673zM98.37837 18.918919h3.7837837v3.7837837h-3.7837837zM121.08108 18.918919h3.7837837v3.7837837h-3.7837837zM15.135135 22.702702h3.7837837v3.7837837h-3.7837837zM22.702702 22.702702h11.351351v3.7837837h-11.351351zM37.837837 22.702702h3.7837837v3.7837837h-3.7837837zM49.189186 22.702702h3.7837837v3.7837837h-3.7837837zM64.324326 22.702702h7.5675673v3.7837837h-7.5675673zM75.675674 22.702702h3.7837837v3.7837837h-3.7837837zM87.02702 22.702702h7.5675673v3.7837837h-7.5675673zM98.37837 22.702702h3.7837837v3.7837837h-3.7837837zM105.945946 22.702702h11.351351v3.7837837h-11.351351zM121.08108 22.702702h3.7837837v3.7837837h-3.7837837zM15.135135 26.486486h3.7837837v3.7837837h-3.7837837zM22.702702 26.486486h11.351351v3.7837837h-11.351351zM37.837837 26.486486h3.7837837v3.7837837h-3.7837837zM49.189186 26.486486h7.5675673v3.7837837h-7.5675673zM60.54054 26.486486h15.135135v3.7837837h-15.135135zM83.24324 26.486486h7.5675673v3.7837837h-7.5675673zM98.37837 26.486486h3.7837837v3.7837837h-3.7837837zM105.945946 26.486486h11.351351v3.7837837h-11.351351zM121.08108 26.486486h3.7837837v3.7837837h-3.7837837zM15.135135 30.27027h3.7837837v3.7837837h-3.7837837zM22.702702 30.27027h11.351351v3.7837837h-11.351351zM37.837837 30.27027h3.7837837v3.7837837h-3.7837837zM45.405403 30.27027h7.5675673v3.7837837h-7.5675673zM60.54054 30.27027h3.7837837v3.7837837h-3.7837837zM68.10811 30.27027h3.7837837v3.7837837h-3.7837837zM87.02702 30.27027h3.7837837v3.7837837h-3.7837837zM98.37837 30.27027h3.7837837v3.7837837h-3.7837837zM105.945946 30.27027h11.351351v3.7837837h-11.351351zM121.08108 30.27027h3.7837837v3.7837837h-3.7837837zM15.135135 34.054054h3.7837837v3.7837837h-3.7837837zM37.837837 34.054054h3.7837837v3.7837837h-3.7837837zM52.972973 34.054054h15.135135v3.7837837h-15.135135zM87.02702 34.054054h3.7837837v3.7837837h-3.7837837zM98.37837 34.054054h3.7837837v3.7837837h-3.7837837zM121.08108 34.054054h3.7837837v3.7837837h-3.7837837zM15.135135 37.837837h26.486486v3.7837837h-26.486486zM45.405403 37.837837h3.7837837v3.7837837h-3.7837837zM52.972973 37.837837h3.7837837v3.7837837h-3.7837837zM60.54054 37.837837h3.7837837v3.7837837h-3.7837837zM68.10811 37.837837h3.7837837v3.7837837h-3.7837837zM75.675674 37.837837h3.7837837v3.7837837h-3.7837837zM83.24324 37.837837h3.7837837v3.7837837h-3.7837837zM90.81081 37.837837h3.7837837v3.7837837h-3.7837837zM98.37837 37.837837h26.486486v3.7837837h-26.486486zM52.972973 41.62162h3.7837837v3.7837837h-3.7837837zM64.324326 41.62162h7.5675673v3.7837837h-7.5675673zM75.675674 41.62162h7.5675673v3.7837837h-7.5675673zM90.81081 41.62162h3.7837837v3.7837837h-3.7837837zM15.135135 45.405403h3.7837837v3.7837837h-3.7837837zM22.702702 45.405403h3.7837837v3.7837837h-3.7837837zM30.27027 45.405403h3.7837837v3.7837837h-3.7837837zM37.837837 45.405403h3.7837837v3.7837837h-3.7837837zM60.54054 45.405403h3.7837837v3.7837837h-3.7837837zM68.10811 45.405403h15.135135v3.7837837h-15.135135zM105.945946 45.405403h3.7837837v3.7837837h-3.7837837zM117.297295 45.405403h3.7837837v3.7837837h-3.7837837zM15.135135 49.189186h7.5675673v3.7837837h-7.5675673zM26.486486 49.189186h11.351351v3.7837837h-11.351351zM41.62162 49.189186h3.7837837v3.7837837h-3.7837837zM49.189186 49.189186h3.7837837v3.7837837h-3.7837837zM68.10811 49.189186h7.5675673v3.7837837h-7.5675673zM79.45946 49.189186h3.7837837v3.7837837h-3.7837837zM90.81081 49.189186h3.7837837v3.7837837h-3.7837837zM98.37837 49.189186h3.7837837v3.7837837h-3.7837837zM109.72973 49.189186h3.7837837v3.7837837h-3.7837837zM121.08108 49.189186h3.7837837v3.7837837h-3.7837837zM26.486486 52.972973h3.7837837v3.7837837h-3.7837837zM34.054054 52.972973h7.5675673v3.7837837h-7.5675673zM45.405403 52.972973h3.7837837v3.7837837h-3.7837837zM52.972973 52.972973h7.5675673v3.7837837h-7.5675673zM64.324326 52.972973h3.7837837v3.7837837h-3.7837837zM98.37837 52.972973h11.351351v3.7837837h-11.351351zM113.51351 52.972973h11.351351v3.7837837h-11.351351zM15.135135 56.756756h3.7837837v3.7837837h-3.7837837zM22.702702 56.756756h3.7837837v3.7837837h-3.7837837zM30.27027 56.756756h7.5675673v3.7837837h-7.5675673zM41.62162 56.756756h15.135135v3.7837837h-15.135135zM60.54054 56.756756h3.7837837v3.7837837h-3.7837837zM71.89189 56.756756h11.351351v3.7837837h-11.351351zM90.81081 56.756756h7.5675673v3.7837837h-7.5675673zM105.945946 56.756756h3.7837837v3.7837837h-3.7837837zM117.297295 56.756756h3.7837837v3.7837837h-3.7837837zM22.702702 60.54054h3.7837837v3.7837837h-3.7837837zM30.27027 60.54054h3.7837837v3.7837837h-3.7837837zM37.837837 60.54054h3.7837837v3.7837837h-3.7837837zM56.756756 60.54054h3.7837837v3.7837837h-3.7837837zM75.675674 60.54054h26.486486v3.7837837h-26.486486zM109.72973 60.54054h3.7837837v3.7837837h-3.7837837zM117.297295 60.54054h7.5675673v3.7837837h-7.5675673zM26.486486 64.324326h3.7837837v3.7837837h-3.7837837zM34.054054 64.324326h3.7837837v3.7837837h-3.7837837zM41.62162 64.324326h7.5675673v3.7837837h-7.5675673zM52.972973 64.324326h3.7837837v3.7837837h-3.7837837zM64.324326 64.324326h3.7837837v3.7837837h-3.7837837zM75.675674 64.324326h3.7837837v3.7837837h-3.7837837zM94.59459 64.324326h7.5675673v3.7837837h-7.5675673zM109.72973 64.324326h3.7837837v3.7837837h-3.7837837zM121.08108 64.324326h3.7837837v3.7837837h-3.7837837zM18.918919 68.10811h7.5675673v3.7837837h-7.5675673zM30.27027 68.10811h11.351351v3.7837837h-11.351351zM45.405403 68.10811h3.7837837v3.7837837h-3.7837837zM68.10811 68.10811h3.7837837v3.7837837h-3.7837837zM79.45946 68.10811h3.7837837v3.7837837h-3.7837837zM94.59459 68.10811h3.7837837v3.7837837h-3.7837837zM102.16216 68.10811h11.351351v3.7837837h-11.351351zM117.297295 68.10811h7.5675673v3.7837837h-7.5675673zM15.135135 71.89189h3.7837837v3.7837837h-3.7837837zM26.486486 71.89189h7.5675673v3.7837837h-7.5675673zM52.972973 71.89189h18.918919v3.7837837h-18.918919zM75.675674 71.89189h22.702702v3.7837837h-22.702702zM102.16216 71.89189h3.7837837v3.7837837h-3.7837837zM109.72973 71.89189h3.7837837v3.7837837h-3.7837837zM117.297295 71.89189h3.7837837v3.7837837h-3.7837837zM15.135135 75.675674h3.7837837v3.7837837h-3.7837837zM22.702702 75.675674h7.5675673v3.7837837h-7.5675673zM37.837837 75.675674h11.351351v3.7837837h-11.351351zM60.54054 75.675674h3.7837837v3.7837837h-3.7837837zM68.10811 75.675674h15.135135v3.7837837h-15.135135zM87.02702 75.675674h15.135135v3.7837837h-15.135135zM109.72973 75.675674h3.7837837v3.7837837h-3.7837837zM117.297295 75.675674h7.5675673v3.7837837h-7.5675673zM18.918919 79.45946h3.7837837v3.7837837h-3.7837837zM26.486486 79.45946h7.5675673v3.7837837h-7.5675673zM56.756756 79.45946h7.5675673v3.7837837h-7.5675673zM68.10811 79.45946h3.7837837v3.7837837h-3.7837837zM75.675674 79.45946h3.7837837v3.7837837h-3.7837837zM90.81081 79.45946h11.351351v3.7837837h-11.351351zM109.72973 79.45946h7.5675673v3.7837837h-7.5675673zM121.08108 79.45946h3.7837837v3.7837837h-3.7837837zM15.135135 83.24324h3.7837837v3.7837837h-3.7837837zM22.702702 83.24324h3.7837837v3.7837837h-3.7837837zM37.837837 83.24324h7.5675673v3.7837837h-7.5675673zM49.189186 83.24324h7.5675673v3.7837837h-7.5675673zM60.54054 83.24324h7.5675673v3.7837837h-7.5675673zM75.675674 83.24324h11.351351v3.7837837h-11.351351zM94.59459 83.24324h7.5675673v3.7837837h-7.5675673zM105.945946 83.24324h3.7837837v3.7837837h-3.7837837zM117.297295 83.24324h7.5675673v3.7837837h-7.5675673zM18.918919 87.02702h7.5675673v3.7837837h-7.5675673zM41.62162 87.02702h7.5675673v3.7837837h-7.5675673zM52.972973 87.02702h11.351351v3.7837837h-11.351351zM71.89189 87.02702h11.351351v3.7837837h-11.351351zM90.81081 87.02702h3.7837837v3.7837837h-3.7837837zM102.16216 87.02702h11.351351v3.7837837h-11.351351zM117.297295 87.02702h3.7837837v3.7837837h-3.7837837zM15.135135 90.81081h3.7837837v3.7837837h-3.7837837zM22.702702 90.81081h3.7837837v3.7837837h-3.7837837zM30.27027 90.81081h3.7837837v3.7837837h-3.7837837zM37.837837 90.81081h3.7837837v3.7837837h-3.7837837zM45.405403 90.81081h3.7837837v3.7837837h-3.7837837zM56.756756 90.81081h3.7837837v3.7837837h-3.7837837zM75.675674 90.81081h7.5675673v3.7837837h-7.5675673zM87.02702 90.81081h22.702702v3.7837837h-22.702702zM45.405403 94.59459h3.7837837v3.7837837h-3.7837837zM60.54054 94.59459h7.5675673v3.7837837h-7.5675673zM75.675674 94.59459h7.5675673v3.7837837h-7.5675673zM87.02702 94.59459h7.5675673v3.7837837h-7.5675673zM105.945946 94.59459h3.7837837v3.7837837h-3.7837837zM113.51351 94.59459h11.351351v3.7837837h-11.351351zM15.135135 98.37837h26.486486v3.7837837h-26.486486zM52.972973 98.37837h3.7837837v3.7837837h-3.7837837zM60.54054 98.37837h3.7837837v3.7837837h-3.7837837zM68.10811 98.37837h3.7837837v3.7837837h-3.7837837zM83.24324 98.37837h11.351351v3.7837837h-11.351351zM98.37837 98.37837h3.7837837v3.7837837h-3.7837837zM105.945946 98.37837h7.5675673v3.7837837h-7.5675673zM117.297295 98.37837h7.5675673v3.7837837h-7.5675673zM15.135135 102.16216h3.7837837v3.7837837h-3.7837837zM37.837837 102.16216h3.7837837v3.7837837h-3.7837837zM49.189186 102.16216h7.5675673v3.7837837h-7.5675673zM60.54054 102.16216h26.486486v3.7837837h-26.486486zM90.81081 102.16216h3.7837837v3.7837837h-3.7837837zM105.945946 102.16216h7.5675673v3.7837837h-7.5675673zM117.297295 102.16216h7.5675673v3.7837837h-7.5675673zM15.135135 105.945946h3.7837837v3.7837837h-3.7837837zM22.702702 105.945946h11.351351v3.7837837h-11.351351zM37.837837 105.945946h3.7837837v3.7837837h-3.7837837zM45.405403 105.945946h3.7837837v3.7837837h-3.7837837zM52.972973 105.945946h7.5675673v3.7837837h-7.5675673zM68.10811 105.945946h15.135135v3.7837837h-15.135135zM90.81081 105.945946h18.918919v3.7837837h-18.918919zM121.08108 105.945946h3.7837837v3.7837837h-3.7837837zM15.135135 109.72973h3.7837837v3.7837837h-3.7837837zM22.702702 109.72973h11.351351v3.7837837h-11.351351zM37.837837 109.72973h3.7837837v3.7837837h-3.7837837zM52.972973 109.72973h3.7837837v3.7837837h-3.7837837zM60.54054 109.72973h3.7837837v3.7837837h-3.7837837zM68.10811 109.72973h3.7837837v3.7837837h-3.7837837zM90.81081 109.72973h7.5675673v3.7837837h-7.5675673zM105.945946 109.72973h3.7837837v3.7837837h-3.7837837zM113.51351 109.72973h11.351351v3.7837837h-11.351351zM15.135135 113.51351h3.7837837v3.7837837h-3.7837837zM22.702702 113.51351h11.351351v3.7837837h-11.351351zM37.837837 113.51351h3.7837837v3.7837837h-3.7837837zM45.405403 113.51351h7.5675673v3.7837837h-7.5675673zM64.324326 113.51351h3.7837837v3.7837837h-3.7837837zM79.45946 113.51351h3.7837837v3.7837837h-3.7837837zM90.81081 113.51351h3.7837837v3.7837837h-3.7837837zM102.16216 113.51351h11.351351v3.7837837h-11.351351zM121.08108 113.51351h3.7837837v3.7837837h-3.7837837zM15.135135 117.297295h3.7837837v3.7837837h-3.7837837zM37.837837 117.297295h3.7837837v3.7837837h-3.7837837zM52.972973 117.297295h15.135135v3.7837837h-15.135135zM71.89189 117.297295h11.351351v3.7837837h-11.351351zM87.02702 117.297295h7.5675673v3.7837837h-7.5675673zM98.37837 117.297295h3.7837837v3.7837837h-3.7837837zM117.297295 117.297295h3.7837837v3.7837837h-3.7837837zM15.135135 121.08108h26.486486v3.7837837h-26.486486zM45.405403 121.08108h11.351351v3.7837837h-11.351351zM60.54054 121.08108h11.351351v3.7837837h-11.351351zM75.675674 121.08108h7.5675673v3.7837837h-7.5675673zM87.02702 121.08108h7.5675673v3.7837837h-7.5675673zM102.16216 121.08108h7.5675673v3.7837837h-7.5675673zM117.297295 121.08108h7.5675673v3.7837837h-7.5675673z" fill="#1a1a2e"/></g></svg></svg>